<svg version="1.1" id="Layer_1" xmlns="http://www.w3.org/2000/svg" xmlns:xlink="http://www.w3.org/1999/xlink" x="0px" y="0px"
	 width="100%" viewBox="0 0 200 200" enable-background="new 0 0 200 200" xml:space="preserve">
<path fill="#000000" opacity="1.000000" stroke="none" 
	d="
M133.000000,201.000000 
	C88.666672,201.000000 44.833340,201.000000 1.000006,201.000000 
	C1.000004,134.333344 1.000004,67.666679 1.000002,1.000015 
	C67.666656,1.000010 134.333313,1.000010 200.999969,1.000005 
	C200.999985,67.666649 200.999985,134.333298 201.000000,200.999969 
	C178.500000,201.000000 156.000000,201.000000 133.000000,201.000000 
M96.567230,50.371033 
	C91.043037,51.654232 85.518845,52.937435 79.322792,54.338612 
	C68.050011,60.528057 58.927391,68.763168 53.391235,81.435188 
	C52.675983,84.632324 51.960728,87.829453 51.150314,91.495674 
	C51.150314,91.495674 51.244217,91.965019 51.092197,92.462448 
	C51.061996,92.633179 51.031792,92.803909 50.329872,93.505272 
	C50.879295,100.351067 51.428719,107.196869 52.062187,114.539841 
	C52.109467,114.701141 52.156742,114.862434 52.100861,115.608162 
	C52.387203,116.079185 52.673546,116.550201 53.017986,117.724411 
	C53.676823,119.148071 54.335663,120.571739 55.047207,122.706993 
	C56.350494,124.804367 57.653782,126.901741 59.058300,129.705750 
	C61.665714,132.162796 64.273125,134.619843 67.179382,137.689957 
	C70.521416,142.786652 75.322624,145.857269 81.476753,147.881348 
	C81.476753,147.881348 81.948273,148.027725 82.186409,148.602081 
	C82.777695,148.662537 83.368988,148.722992 84.479820,148.957092 
	C84.659821,148.987747 84.839828,149.018387 85.364143,149.609436 
	C86.227493,149.675644 87.090836,149.741852 88.451660,149.960663 
	C88.622902,149.988281 88.794136,150.015900 89.311012,150.627136 
	C90.194771,150.685715 91.078537,150.744278 92.736320,151.168137 
	C98.160873,151.110382 103.585434,151.052612 109.775810,150.973114 
	C111.202774,150.578644 112.629730,150.184174 114.700188,149.915405 
	C115.450172,149.641434 116.200150,149.367477 117.699089,148.962036 
	C133.240738,143.354416 143.835114,132.881821 149.637878,116.726570 
	C149.704224,115.797737 149.770569,114.868912 149.974274,113.544777 
	C149.974274,113.544777 150.040695,113.131599 150.715027,112.672020 
	C151.134521,107.463577 152.238235,102.200775 151.829620,97.058136 
	C151.004730,86.676506 147.722229,77.041649 140.094528,68.631302 
	C137.392761,66.087624 134.691010,63.543953 131.680862,60.389702 
	C128.447388,58.582829 125.213905,56.775959 121.575363,54.364510 
	C116.033821,53.248528 110.492271,52.132545 104.080299,51.007854 
	C101.746704,50.988148 99.413116,50.968441 96.567230,50.371033 
z"/>
<path fill="#1075E8" opacity="1.000000" stroke="none" 
	d="
M114.056694,149.789719 
	C112.629730,150.184174 111.202774,150.578644 109.039162,150.787415 
	C104.846054,150.214279 101.389595,149.826813 97.655968,149.408295 
	C99.016220,147.184555 99.995506,145.583633 101.364731,143.979095 
	C105.182358,143.047333 108.610039,142.119186 112.369247,141.032959 
	C121.478554,137.472931 129.270340,132.694046 135.139084,124.748344 
	C135.542816,124.017975 135.746811,123.489891 135.972595,122.975784 
	C135.994385,122.989761 135.955002,122.968285 136.166962,122.842087 
	C136.643417,122.506996 136.836075,122.245239 137.011780,121.712959 
	C137.066681,121.495308 137.224884,121.075150 137.389130,120.925758 
	C137.758759,120.554100 137.896103,120.295685 137.963455,119.983551 
	C137.961487,119.965973 137.996826,119.964256 138.200073,119.756012 
	C138.600845,119.006966 138.798355,118.466171 139.026520,117.635162 
	C139.349411,116.887230 139.641632,116.429512 140.160217,115.837982 
	C140.587601,114.750282 140.788635,113.796394 141.011810,112.661880 
	C141.033951,112.481255 141.161148,112.140259 141.403320,111.920189 
	C142.419601,108.134163 143.193710,104.568214 144.313477,100.953300 
	C146.453644,99.930405 148.248138,98.956474 150.084686,98.387611 
	C150.098068,103.572327 150.069382,108.351959 150.040695,113.131599 
	C150.040695,113.131599 149.974274,113.544777 149.731018,114.026917 
	C149.335449,115.372826 149.183121,116.236580 149.030807,117.100342 
	C143.835114,132.881821 133.240738,143.354416 117.020935,149.007889 
	C115.580757,149.299057 114.818726,149.544388 114.056694,149.789719 
z"/>
<path fill="#2E1FAD" opacity="1.000000" stroke="none" 
	d="
M53.982693,80.973152 
	C58.927391,68.763168 68.050011,60.528057 79.620758,54.642998 
	C79.279579,58.627510 78.640442,62.307636 77.824326,66.275681 
	C73.698235,70.715248 69.749107,74.866898 65.429779,79.028130 
	C61.367287,79.682861 57.674992,80.328003 53.982693,80.973152 
z"/>
<path fill="#2267CE" opacity="1.000000" stroke="none" 
	d="
M143.967834,101.002266 
	C143.193710,104.568214 142.419601,108.134163 141.337875,111.481537 
	C143.782593,98.963791 141.808395,87.508598 135.098114,76.705406 
	C136.193390,75.405342 137.173340,74.391243 137.967102,73.247910 
	C138.858612,71.963814 139.581955,70.562965 140.378448,69.212914 
	C147.722229,77.041649 151.004730,86.676506 151.829620,97.058136 
	C152.238235,102.200775 151.134521,107.463577 150.377869,112.901810 
	C150.069382,108.351959 150.098068,103.572327 150.083679,97.962448 
	C149.382782,93.563019 148.914246,89.941895 147.957382,86.454758 
	C147.651062,85.338478 146.052322,84.576851 145.044907,83.652954 
	C144.143692,84.721054 142.896973,85.661888 142.442886,86.894684 
	C142.026794,88.024384 142.382004,89.479935 142.545334,90.773216 
	C142.976624,94.188316 143.488220,97.593269 143.967834,101.002266 
z"/>
<path fill="#176BDD" opacity="1.000000" stroke="none" 
	d="
M100.974792,143.982712 
	C99.995506,145.583633 99.016220,147.184555 97.655968,149.408295 
	C101.389595,149.826813 104.846054,150.214279 108.656250,150.798294 
	C103.585434,151.052612 98.160873,151.110382 92.073936,150.834991 
	C90.596161,150.349060 89.780769,150.196274 88.965378,150.043503 
	C88.794136,150.015900 88.622902,149.988281 87.936829,149.727631 
	C86.621277,149.346100 85.820549,149.197571 85.019829,149.049042 
	C84.839828,149.018387 84.659821,148.987747 83.990219,148.726776 
	C82.983162,148.340225 82.465721,148.183975 81.948273,148.027725 
	C81.948273,148.027725 81.476753,147.881348 81.261703,147.400970 
	C80.624733,141.695526 86.231522,143.595856 88.366920,141.017639 
	C89.129890,141.081375 89.564301,141.132446 90.200653,141.419662 
	C93.926659,142.431442 97.450722,143.207077 100.974792,143.982712 
z"/>
<path fill="#1D63D2" opacity="1.000000" stroke="none" 
	d="
M88.038361,141.004990 
	C86.231522,143.595856 80.624733,141.695526 81.039413,147.293610 
	C75.322624,145.857269 70.521416,142.786652 67.393120,137.231140 
	C70.703735,136.158661 73.800621,135.544998 76.985153,134.930511 
	C77.072815,134.929688 77.100388,135.101059 77.228195,135.257309 
	C77.540329,135.612152 77.746765,135.784225 78.016037,135.927261 
	C78.056778,135.924744 78.062637,136.006165 78.123154,136.208969 
	C78.777237,136.585205 79.370796,136.758652 80.322708,136.995758 
	C83.133492,138.374619 85.585922,139.689804 88.038361,141.004990 
z"/>
<path fill="#2A27B9" opacity="1.000000" stroke="none" 
	d="
M53.686966,81.204170 
	C57.674992,80.328003 61.367287,79.682861 65.396957,79.342621 
	C65.068321,80.457222 64.402321,81.266907 63.604027,82.210709 
	C63.304008,82.534256 63.168079,82.744270 63.069237,83.016708 
	C63.074535,83.058548 62.990971,83.069954 62.817780,83.277985 
	C62.445843,83.986069 62.247093,84.486122 62.052738,85.017578 
	C62.057133,85.048996 61.993694,85.049599 61.749237,85.142105 
	C61.345833,86.148682 61.186882,87.062744 61.002617,88.334457 
	C60.556232,89.771873 60.135159,90.851646 59.370621,91.979706 
	C56.259602,91.560432 54.144318,96.622871 51.001591,92.974632 
	C51.031792,92.803909 51.061996,92.633179 51.219852,92.100845 
	C51.410919,91.489517 51.376907,91.251968 51.245472,91.026588 
	C51.960728,87.829453 52.675983,84.632324 53.686966,81.204170 
z"/>
<path fill="#1F55CF" opacity="1.000000" stroke="none" 
	d="
M76.897499,134.931335 
	C73.800621,135.544998 70.703735,136.158661 67.243698,136.924622 
	C64.273125,134.619843 61.665714,132.162796 59.321152,129.220398 
	C61.387142,127.151047 63.190277,125.567055 65.241058,123.986343 
	C65.488701,123.989616 65.983437,123.974327 66.285858,124.129921 
	C70.024689,127.834122 73.461090,131.382736 76.897499,134.931335 
z"/>
<path fill="#2837B4" opacity="1.000000" stroke="none" 
	d="
M50.665733,93.239952 
	C54.144318,96.622871 56.259602,91.560432 59.428078,92.451729 
	C59.812817,98.263695 59.796646,103.651924 59.537056,108.801300 
	C58.949265,108.011154 58.716682,107.322220 58.239399,106.934586 
	C56.852749,105.808395 55.368008,104.802986 53.921749,103.750191 
	C53.276337,105.220055 52.325634,106.637695 52.063026,108.173035 
	C51.737087,110.078667 51.980598,112.081703 51.978142,114.042664 
	C51.428719,107.196869 50.879295,100.351067 50.665733,93.239952 
z"/>
<path fill="#1E4CCF" opacity="1.000000" stroke="none" 
	d="
M121.980423,54.969090 
	C125.213905,56.775959 128.447388,58.582829 131.655396,60.988880 
	C130.427216,64.061401 129.224503,66.534737 127.699692,68.888779 
	C125.235512,67.171486 123.093430,65.573486 120.744003,63.799515 
	C120.035408,63.421116 119.534157,63.218689 119.003448,63.024887 
	C118.973999,63.033508 118.969360,62.972305 118.763290,62.796730 
	C118.060463,62.416737 117.563698,62.212315 117.031998,62.009373 
	C116.997063,62.010849 116.993973,61.940975 116.935593,61.615829 
	C115.449409,56.657646 119.722572,56.626816 121.980423,54.969090 
z"/>
<path fill="#2341C5" opacity="1.000000" stroke="none" 
	d="
M121.777893,54.666801 
	C119.722572,56.626816 115.449409,56.657646 116.551178,61.599586 
	C113.780090,61.183380 111.335037,60.458271 108.568893,59.587631 
	C106.822281,59.243092 105.396759,59.044083 104.071236,58.469315 
	C104.431061,55.734562 104.690895,53.375565 104.950729,51.016563 
	C110.492271,52.132545 116.033821,53.248528 121.777893,54.666801 
z"/>
<path fill="#223FC8" opacity="1.000000" stroke="none" 
	d="
M52.020164,114.291252 
	C51.980598,112.081703 51.737087,110.078667 52.063026,108.173035 
	C52.325634,106.637695 53.276337,105.220055 53.921749,103.750191 
	C55.368008,104.802986 56.852749,105.808395 58.239399,106.934586 
	C58.716682,107.322220 58.949265,108.011154 59.609772,109.027679 
	C59.925915,109.492920 60.010445,109.961349 60.016045,110.279831 
	C60.279587,111.394089 60.537533,112.189880 60.868359,113.227303 
	C60.970329,113.634666 60.999420,113.800392 61.041931,114.289116 
	C61.381359,115.386169 61.707371,116.160233 62.239159,117.049004 
	C62.751480,117.377129 62.833923,117.656631 62.316086,118.009476 
	C59.624775,119.342964 57.309639,120.669182 54.994503,121.995407 
	C54.335663,120.571739 53.676823,119.148071 52.952087,117.105042 
	C52.658798,115.998352 52.431404,115.511032 52.204014,115.023720 
	C52.156742,114.862434 52.109467,114.701141 52.020164,114.291252 
z"/>
<path fill="#1E57D2" opacity="1.000000" stroke="none" 
	d="
M128.021790,69.008080 
	C129.224503,66.534737 130.427216,64.061401 131.809570,61.294167 
	C134.691010,63.543953 137.392761,66.087624 140.236481,68.922104 
	C139.581955,70.562965 138.858612,71.963814 137.967102,73.247910 
	C137.173340,74.391243 136.193390,75.405342 134.797623,76.570496 
	C132.207016,74.112373 130.114410,71.560226 128.021790,69.008080 
z"/>
<path fill="#2B28AE" opacity="1.000000" stroke="none" 
	d="
M78.001297,65.987762 
	C78.640442,62.307636 79.279579,58.627510 79.956688,54.584007 
	C85.518845,52.937435 91.043037,51.654232 96.568825,50.798767 
	C96.060760,51.503338 95.551109,51.780170 94.629272,52.045998 
	C93.083427,52.112202 91.665649,51.788456 90.874489,52.349052 
	C89.161217,53.563053 87.768745,55.229774 86.245071,56.711346 
	C87.816986,57.812305 89.388908,58.913261 90.754082,60.311821 
	C86.365326,62.402206 82.183311,64.194984 78.001297,65.987762 
z"/>
<path fill="#2334C8" opacity="1.000000" stroke="none" 
	d="
M95.041458,52.056999 
	C95.551109,51.780170 96.060760,51.503338 96.824966,51.087624 
	C99.413116,50.968441 101.746704,50.988148 104.515518,51.012211 
	C104.690895,53.375565 104.431061,55.734562 103.782150,58.382774 
	C102.240768,58.726891 101.088463,58.781788 99.638596,58.870377 
	C98.589272,59.138180 97.837509,59.372299 96.747681,59.666283 
	C95.954918,59.689495 95.500229,59.652840 95.046135,59.418259 
	C95.046738,59.220333 94.985672,58.829216 94.990601,58.405289 
	C95.010834,56.006573 95.026146,54.031784 95.041458,52.056999 
z"/>
<path fill="#1E4CCF" opacity="1.000000" stroke="none" 
	d="
M55.020855,122.351196 
	C57.309639,120.669182 59.624775,119.342964 62.413376,118.270973 
	C62.932236,118.705482 62.977631,118.885765 63.081131,119.325394 
	C63.399426,120.041405 63.659618,120.498070 64.168030,121.069061 
	C64.614304,121.480949 64.812355,121.778511 65.001625,122.393753 
	C64.993027,123.135323 64.993225,123.559189 64.993416,123.983063 
	C63.190277,125.567055 61.387142,127.151047 59.270538,128.867081 
	C57.653782,126.901741 56.350494,124.804367 55.020855,122.351196 
z"/>
<path fill="#1D63D2" opacity="1.000000" stroke="none" 
	d="
M89.138199,150.335327 
	C89.780769,150.196274 90.596161,150.349060 91.686920,150.652344 
	C91.078537,150.744278 90.194771,150.685715 89.138199,150.335327 
z"/>
<path fill="#1D63D2" opacity="1.000000" stroke="none" 
	d="
M85.191986,149.329239 
	C85.820549,149.197571 86.621277,149.346100 87.688095,149.651337 
	C87.090836,149.741852 86.227493,149.675644 85.191986,149.329239 
z"/>
<path fill="#176BDD" opacity="1.000000" stroke="none" 
	d="
M114.378441,149.852570 
	C114.818726,149.544388 115.580757,149.299057 116.646461,149.073624 
	C116.200150,149.367477 115.450172,149.641434 114.378441,149.852570 
z"/>
<path fill="#2267CE" opacity="1.000000" stroke="none" 
	d="
M149.334351,116.913452 
	C149.183121,116.236580 149.335449,115.372826 149.662354,114.224571 
	C149.770569,114.868912 149.704224,115.797737 149.334351,116.913452 
z"/>
<path fill="#2837B4" opacity="1.000000" stroke="none" 
	d="
M52.152435,115.315941 
	C52.431404,115.511032 52.658798,115.998352 52.923038,116.753448 
	C52.673546,116.550201 52.387203,116.079185 52.152435,115.315941 
z"/>
<path fill="#1D63D2" opacity="1.000000" stroke="none" 
	d="
M82.067337,148.314911 
	C82.465721,148.183975 82.983162,148.340225 83.730438,148.639954 
	C83.368988,148.722992 82.777695,148.662537 82.067337,148.314911 
z"/>
<path fill="#2837B4" opacity="1.000000" stroke="none" 
	d="
M51.197891,91.261131 
	C51.376907,91.251968 51.410919,91.489517 51.295860,91.852127 
	C51.244217,91.965019 51.150314,91.495674 51.197891,91.261131 
z"/>
<path fill="#000000" opacity="1.000000" stroke="none" 
	d="
M63.023029,119.066040 
	C62.977631,118.885765 62.932236,118.705482 62.789547,118.263718 
	C62.833923,117.656631 62.751480,117.377129 62.220268,116.717957 
	C61.673244,115.503510 61.350880,114.734810 61.028515,113.966118 
	C60.999420,113.800392 60.970329,113.634666 60.928337,112.892715 
	C60.613773,111.531441 60.312107,110.746391 60.010445,109.961349 
	C60.010445,109.961349 59.925915,109.492920 59.853195,109.266541 
	C59.796646,103.651924 59.812817,98.263695 59.771534,92.403442 
	C60.135159,90.851646 60.556232,89.771873 61.261795,88.138977 
	C61.695419,86.740433 61.844555,85.895020 61.993690,85.049599 
	C61.993694,85.049599 62.057133,85.048996 62.309822,84.884125 
	C62.705334,84.169487 62.848156,83.619720 62.990974,83.069954 
	C62.990971,83.069954 63.074535,83.058548 63.271416,82.944199 
	C63.758259,82.650192 63.847599,82.399101 63.736317,82.076591 
	C64.402321,81.266907 65.068321,80.457222 65.767151,79.333038 
	C69.749107,74.866898 73.698235,70.715248 77.824326,66.275681 
	C82.183311,64.194984 86.365326,62.402206 90.784492,60.316193 
	C91.021645,60.022964 91.023933,59.962242 91.428253,59.952888 
	C92.903557,59.834415 93.974541,59.725296 95.045532,59.616180 
	C95.500229,59.652840 95.954918,59.689495 97.103363,59.762791 
	C98.534386,59.786518 99.271667,59.773605 100.452103,59.827969 
	C103.560173,59.841217 106.225075,59.787189 108.889984,59.733162 
	C111.335037,60.458271 113.780090,61.183380 116.609558,61.924736 
	C116.993973,61.940975 116.997063,62.010849 117.147224,62.278542 
	C117.854713,62.688259 118.412033,62.830284 118.969360,62.972305 
	C118.969360,62.972305 118.973999,63.033508 119.138229,63.282043 
	C119.852097,63.678883 120.401718,63.827183 120.951347,63.975487 
	C123.093430,65.573486 125.235512,67.171486 127.699692,68.888779 
	C130.114410,71.560226 132.207016,74.112373 134.600098,76.799423 
	C141.808395,87.508598 143.782593,98.963791 141.095703,111.701607 
	C141.161148,112.140259 141.033951,112.481255 140.704437,112.843575 
	C140.227921,114.127861 140.080887,115.049828 139.933853,115.971794 
	C139.641632,116.429512 139.349411,116.887230 138.755463,117.781715 
	C138.301437,118.800407 138.149139,119.382332 137.996826,119.964256 
	C137.996826,119.964256 137.961487,119.965973 137.719177,120.061180 
	C137.392868,120.462646 137.308884,120.768898 137.224884,121.075150 
	C137.224884,121.075150 137.066681,121.495308 136.768097,121.798737 
	C136.298019,122.390869 136.126511,122.679581 135.955002,122.968285 
	C135.955002,122.968285 135.994385,122.989761 135.678635,123.082458 
	C135.221695,123.766975 135.080521,124.358803 134.939331,124.950630 
	C129.270340,132.694046 121.478554,137.472931 111.942123,140.965942 
	C104.121880,141.099167 97.060295,141.141342 89.998711,141.183517 
	C89.564301,141.132446 89.129890,141.081375 88.366920,141.017639 
	C85.585922,139.689804 83.133492,138.374619 80.188019,136.745316 
	C79.150871,136.289520 78.606750,136.147842 78.062637,136.006165 
	C78.062637,136.006165 78.056778,135.924744 77.951538,135.715805 
	C77.677933,135.224091 77.429298,135.088821 77.100388,135.101059 
	C77.100388,135.101059 77.072815,134.929688 76.985153,134.930511 
	C73.461090,131.382736 70.024689,127.834122 66.262802,123.836151 
	C65.628349,122.949883 65.319382,122.512978 65.010414,122.076065 
	C64.812355,121.778511 64.614304,121.480949 64.155548,120.785507 
	C63.604240,119.947098 63.313637,119.506569 63.023029,119.066040 
M126.913475,85.477097 
	C126.639091,85.288925 126.364708,85.100754 125.956841,84.220383 
	C123.254791,81.445297 120.552742,78.670204 117.500938,75.321701 
	C112.446228,73.545998 107.948357,69.192322 101.187866,71.989899 
	C100.463814,71.954735 99.739761,71.919579 98.564262,71.301285 
	C96.710899,71.534668 94.857544,71.768051 92.254158,72.063736 
	C81.726105,75.385078 74.422501,81.831558 71.384346,93.523109 
	C71.322510,95.677940 71.260674,97.832779 71.076347,100.847237 
	C71.342308,103.503052 71.608269,106.158867 72.029503,109.557381 
	C72.999306,111.680038 73.969109,113.802689 75.056816,116.564095 
	C75.687378,117.385139 76.317932,118.206184 77.012917,119.728874 
	C80.660286,122.490761 84.307655,125.252655 87.963142,128.038605 
	C87.963142,128.038605 87.988350,128.041870 88.143730,128.527451 
	C88.446411,128.613190 88.749100,128.698914 89.480286,128.935898 
	C89.480286,128.935898 89.925667,129.026001 90.284599,129.639725 
	C91.218018,129.695328 92.151428,129.750931 93.499474,129.936966 
	C93.499474,129.936966 93.931976,129.980209 93.941849,130.063553 
	C93.941849,130.063553 94.025795,130.063934 94.546455,130.729630 
	C97.373604,130.812836 100.200500,130.957123 103.027954,130.969299 
	C120.570900,131.044785 135.166504,111.618668 129.983109,93.290779 
	C129.218628,91.198685 128.454147,89.106590 127.707619,86.556374 
	C127.554222,86.271652 127.323898,86.078712 126.913475,85.477097 
z"/>
<path fill="#106AE6" opacity="1.000000" stroke="none" 
	d="
M144.313477,100.953300 
	C143.488220,97.593269 142.976624,94.188316 142.545334,90.773216 
	C142.382004,89.479935 142.026794,88.024384 142.442886,86.894684 
	C142.896973,85.661888 144.143692,84.721054 145.044907,83.652954 
	C146.052322,84.576851 147.651062,85.338478 147.957382,86.454758 
	C148.914246,89.941895 149.382782,93.563019 150.041611,97.557373 
	C148.248138,98.956474 146.453644,99.930405 144.313477,100.953300 
z"/>
<path fill="#1D63D2" opacity="1.000000" stroke="none" 
	d="
M90.200653,141.419662 
	C97.060295,141.141342 104.121880,141.099167 111.610596,141.124023 
	C108.610039,142.119186 105.182358,143.047333 101.364731,143.979095 
	C97.450722,143.207077 93.926659,142.431442 90.200653,141.419662 
z"/>
<path fill="#2267CE" opacity="1.000000" stroke="none" 
	d="
M140.160217,115.837982 
	C140.080887,115.049828 140.227921,114.127861 140.682297,113.024200 
	C140.788635,113.796394 140.587601,114.750282 140.160217,115.837982 
z"/>
<path fill="#2267CE" opacity="1.000000" stroke="none" 
	d="
M135.139084,124.748344 
	C135.080521,124.358803 135.221695,123.766975 135.656845,123.068481 
	C135.746811,123.489891 135.542816,124.017975 135.139084,124.748344 
z"/>
<path fill="#2267CE" opacity="1.000000" stroke="none" 
	d="
M138.200073,119.756012 
	C138.149139,119.382332 138.301437,118.800407 138.724808,118.071930 
	C138.798355,118.466171 138.600845,119.006966 138.200073,119.756012 
z"/>
<path fill="#2267CE" opacity="1.000000" stroke="none" 
	d="
M136.166962,122.842087 
	C136.126511,122.679581 136.298019,122.390869 136.713211,122.016388 
	C136.836075,122.245239 136.643417,122.506996 136.166962,122.842087 
z"/>
<path fill="#2267CE" opacity="1.000000" stroke="none" 
	d="
M137.389130,120.925758 
	C137.308884,120.768898 137.392868,120.462646 137.721130,120.078758 
	C137.896103,120.295685 137.758759,120.554100 137.389130,120.925758 
z"/>
<path fill="#1F55CF" opacity="1.000000" stroke="none" 
	d="
M78.123154,136.208969 
	C78.606750,136.147842 79.150871,136.289520 79.829666,136.681641 
	C79.370796,136.758652 78.777237,136.585205 78.123154,136.208969 
z"/>
<path fill="#1F55CF" opacity="1.000000" stroke="none" 
	d="
M77.228195,135.257309 
	C77.429298,135.088821 77.677933,135.224091 77.910797,135.718323 
	C77.746765,135.784225 77.540329,135.612152 77.228195,135.257309 
z"/>
<path fill="#2E1FAD" opacity="1.000000" stroke="none" 
	d="
M61.749237,85.142105 
	C61.844555,85.895020 61.695419,86.740433 61.287102,87.781326 
	C61.186882,87.062744 61.345833,86.148682 61.749237,85.142105 
z"/>
<path fill="#2E1FAD" opacity="1.000000" stroke="none" 
	d="
M62.817783,83.277985 
	C62.848156,83.619720 62.705334,84.169487 62.305428,84.852707 
	C62.247093,84.486122 62.445843,83.986069 62.817783,83.277985 
z"/>
<path fill="#2E1FAD" opacity="1.000000" stroke="none" 
	d="
M63.604027,82.210709 
	C63.847599,82.399101 63.758259,82.650192 63.266121,82.902359 
	C63.168079,82.744270 63.304008,82.534256 63.604027,82.210709 
z"/>
<path fill="#223FC8" opacity="1.000000" stroke="none" 
	d="
M65.001625,122.393753 
	C65.319382,122.512978 65.628349,122.949883 65.960381,123.680557 
	C65.983437,123.974327 65.488701,123.989616 65.241058,123.986343 
	C64.993225,123.559189 64.993027,123.135323 65.001625,122.393753 
z"/>
<path fill="#2341C5" opacity="1.000000" stroke="none" 
	d="
M118.763290,62.796730 
	C118.412033,62.830284 117.854713,62.688259 117.182159,62.277069 
	C117.563698,62.212315 118.060463,62.416737 118.763290,62.796730 
z"/>
<path fill="#2341C5" opacity="1.000000" stroke="none" 
	d="
M120.744003,63.799515 
	C120.401718,63.827183 119.852097,63.678883 119.167679,63.273422 
	C119.534157,63.218689 120.035408,63.421116 120.744003,63.799515 
z"/>
<path fill="#272DBB" opacity="1.000000" stroke="none" 
	d="
M108.568893,59.587631 
	C106.225075,59.787189 103.560173,59.841217 100.438950,59.596584 
	C99.982635,59.297924 99.936165,58.836685 99.936165,58.836685 
	C101.088463,58.781788 102.240768,58.726891 103.682159,58.758533 
	C105.396759,59.044083 106.822281,59.243092 108.568893,59.587631 
z"/>
<path fill="#2837B4" opacity="1.000000" stroke="none" 
	d="
M60.016045,110.279831 
	C60.312107,110.746391 60.613773,111.531441 60.855461,112.651077 
	C60.537533,112.189880 60.279587,111.394089 60.016045,110.279831 
z"/>
<path fill="#2837B4" opacity="1.000000" stroke="none" 
	d="
M61.041931,114.289116 
	C61.350880,114.734810 61.673244,115.503510 62.014496,116.603241 
	C61.707371,116.160233 61.381359,115.386169 61.041931,114.289116 
z"/>
<path fill="#272DBB" opacity="1.000000" stroke="none" 
	d="
M94.629280,52.045994 
	C95.026146,54.031784 95.010834,56.006573 94.692932,58.422874 
	C93.268204,59.230339 92.146072,59.596291 91.023933,59.962242 
	C91.023933,59.962242 91.021645,60.022964 90.991234,60.018593 
	C89.388908,58.913261 87.816986,57.812305 86.245071,56.711346 
	C87.768745,55.229774 89.161217,53.563053 90.874489,52.349052 
	C91.665649,51.788456 93.083427,52.112202 94.629280,52.045994 
z"/>
<path fill="#2B28AE" opacity="1.000000" stroke="none" 
	d="
M91.428253,59.952888 
	C92.146072,59.596291 93.268204,59.230339 94.688004,58.846802 
	C94.985672,58.829216 95.046738,59.220333 95.046135,59.418259 
	C93.974541,59.725296 92.903557,59.834415 91.428253,59.952888 
z"/>
<path fill="#2B28AE" opacity="1.000000" stroke="none" 
	d="
M99.638596,58.870377 
	C99.936165,58.836685 99.982635,59.297924 99.995789,59.529308 
	C99.271667,59.773605 98.534386,59.786518 97.441422,59.702927 
	C97.837509,59.372299 98.589272,59.138180 99.638596,58.870377 
z"/>
<path fill="#223FC8" opacity="1.000000" stroke="none" 
	d="
M63.081131,119.325394 
	C63.313637,119.506569 63.604240,119.947098 63.907330,120.671181 
	C63.659618,120.498070 63.399426,120.041405 63.081131,119.325394 
z"/>
<path fill="#1951D9" opacity="1.000000" stroke="none" 
	d="
M76.948494,119.027229 
	C76.317932,118.206184 75.687378,117.385139 75.103256,115.989471 
	C75.430992,114.940140 75.712288,114.465439 76.386826,114.032104 
	C81.156677,115.834305 84.694839,113.812668 88.448296,111.835709 
	C103.085480,104.126274 113.115326,93.115379 115.354431,76.004013 
	C116.425552,75.965912 117.138123,75.930519 117.850693,75.895119 
	C120.552742,78.670204 123.254791,81.445297 125.984665,84.608078 
	C126.012489,84.995781 125.940964,85.084457 125.631729,84.972687 
	C124.108078,83.807091 122.893661,82.753258 120.592789,80.756630 
	C119.846344,83.675003 119.382858,85.854858 118.721237,87.972832 
	C118.027519,90.193565 117.350571,92.462509 116.284729,94.511940 
	C115.224236,96.551102 113.666290,98.327881 112.367012,100.247154 
	C106.307320,109.198509 97.577202,114.661797 87.826958,118.708397 
	C86.575310,118.387741 85.449570,118.220314 84.341545,118.299751 
	C81.872498,118.476753 79.412300,118.777122 76.948494,119.027229 
z"/>
<path fill="#1172E7" opacity="1.000000" stroke="none" 
	d="
M130.085922,94.060120 
	C135.166504,111.618668 120.570900,131.044785 103.027954,130.969299 
	C100.200500,130.957123 97.373604,130.812836 94.655396,130.371597 
	C95.570992,129.839508 96.584274,129.917892 97.152596,129.452667 
	C103.399673,124.339012 109.911140,119.481636 115.663101,113.852005 
	C119.881203,109.723625 123.141815,104.599297 126.697533,99.820900 
	C128.019714,98.044052 128.967438,95.988556 130.085922,94.060120 
z"/>
<path fill="#1267E3" opacity="1.000000" stroke="none" 
	d="
M130.034515,93.675453 
	C128.967438,95.988556 128.019714,98.044052 126.697533,99.820900 
	C123.141815,104.599297 119.881203,109.723625 115.663101,113.852005 
	C109.911140,119.481636 103.399673,124.339012 97.152596,129.452667 
	C96.584274,129.917892 95.570992,129.839508 94.395065,130.038757 
	C94.025795,130.063934 93.941849,130.063553 93.812225,129.870178 
	C93.517265,129.474411 93.332993,129.291046 92.730759,129.085083 
	C91.529716,129.037643 90.727692,129.031815 89.925667,129.026001 
	C89.925667,129.026001 89.480286,128.935898 89.115143,128.699860 
	C88.529587,128.262711 88.275711,128.122070 87.988350,128.041870 
	C87.988350,128.041870 87.963142,128.038605 87.864670,127.735466 
	C87.155449,125.941162 86.544716,124.449989 86.395752,122.970840 
	C92.992767,123.835693 98.259918,122.191635 102.723488,117.786278 
	C104.366470,116.164719 106.481087,115.032684 108.233231,113.508034 
	C115.049728,107.576569 120.980972,101.046143 122.274406,91.546005 
	C122.727463,91.814285 123.180527,92.082573 123.633583,92.350861 
	C124.820099,90.608238 126.006607,88.865616 127.318451,87.101334 
	C127.443779,87.079674 127.689651,87.014496 127.689651,87.014496 
	C128.454147,89.106590 129.218628,91.198685 130.034515,93.675453 
z"/>
<path fill="#203ECD" opacity="1.000000" stroke="none" 
	d="
M117.675812,75.608414 
	C117.138123,75.930519 116.425552,75.965912 115.037796,75.917404 
	C110.069153,73.443192 108.609253,75.973755 108.074234,79.621597 
	C106.714088,88.895470 101.897888,96.307236 94.550568,101.534912 
	C89.999123,104.773308 84.183632,106.254440 78.894005,108.423058 
	C77.496284,108.996086 75.944603,109.193542 74.463615,109.563454 
	C74.973610,111.039215 75.483597,112.514969 75.993584,113.990730 
	C75.712288,114.465439 75.430992,114.940140 75.044312,115.670097 
	C73.969109,113.802689 72.999306,111.680038 71.992973,108.770248 
	C71.984413,105.991196 72.012383,103.999268 72.380348,102.149200 
	C75.468971,102.578003 78.513008,103.774193 80.914848,102.993813 
	C91.088142,99.688461 98.351395,92.805641 102.323586,82.860207 
	C103.706749,79.397057 104.800034,75.477463 101.913399,71.954826 
	C107.948357,69.192322 112.446228,73.545998 117.675812,75.608414 
z"/>
<path fill="#2334C8" opacity="1.000000" stroke="none" 
	d="
M101.550629,71.972366 
	C104.800034,75.477463 103.706749,79.397057 102.323586,82.860207 
	C98.351395,92.805641 91.088142,99.688461 80.914848,102.993813 
	C78.513008,103.774193 75.468971,102.578003 72.362732,101.814552 
	C71.985664,100.891861 71.966217,100.445671 71.969910,99.746033 
	C72.006706,99.323441 72.020348,99.154312 72.426407,98.982727 
	C75.061592,98.077538 77.232529,96.868210 79.559074,96.323051 
	C92.348495,93.326256 95.848030,82.965149 98.976898,72.149139 
	C99.009598,72.064941 99.015709,71.884415 99.015709,71.884415 
	C99.739761,71.919579 100.463814,71.954735 101.550629,71.972366 
z"/>
<path fill="#2C20B3" opacity="1.000000" stroke="none" 
	d="
M71.976387,92.985916 
	C74.422501,81.831558 81.726105,75.385078 92.686234,72.099609 
	C93.118309,72.135490 93.232803,72.269241 93.093521,72.586647 
	C89.812912,83.505249 82.107414,89.456360 72.185745,93.161713 
	C72.116127,93.102913 71.976387,92.985916 71.976387,92.985916 
z"/>
<path fill="#215CCF" opacity="1.000000" stroke="none" 
	d="
M85.933975,122.958824 
	C86.544716,124.449989 87.155449,125.941162 87.860611,127.723434 
	C84.307655,125.252655 80.660286,122.490761 76.980705,119.378052 
	C79.412300,118.777122 81.872498,118.476753 84.341545,118.299751 
	C85.449570,118.220314 86.575310,118.387741 87.574127,118.920837 
	C86.948151,120.585289 86.441063,121.772057 85.933975,122.958824 
z"/>
<path fill="#272AC1" opacity="1.000000" stroke="none" 
	d="
M71.946762,99.999489 
	C71.966217,100.445671 71.985664,100.891861 72.022736,101.672699 
	C72.012383,103.999268 71.984413,105.991196 71.915329,108.398895 
	C71.608269,106.158867 71.342308,103.503052 71.324547,100.422012 
	C71.572746,99.996780 71.946762,99.999489 71.946762,99.999489 
z"/>
<path fill="#2C20B3" opacity="1.000000" stroke="none" 
	d="
M71.969910,99.746033 
	C71.946762,99.999489 71.572746,99.996780 71.385788,99.992195 
	C71.260674,97.832779 71.322510,95.677940 71.680367,93.254517 
	C71.976387,92.985916 72.116127,93.102913 72.129005,93.566132 
	C72.105919,95.681305 72.069962,97.333244 72.033997,98.985191 
	C72.020348,99.154312 72.006706,99.323441 71.969910,99.746033 
z"/>
<path fill="#2C20B3" opacity="1.000000" stroke="none" 
	d="
M93.061249,72.068466 
	C94.857544,71.768051 96.710899,71.534668 98.789986,71.592850 
	C99.015709,71.884415 99.009598,72.064941 98.568359,72.092224 
	C96.495674,72.169426 94.864243,72.219330 93.232803,72.269241 
	C93.232803,72.269241 93.118309,72.135490 93.061249,72.068466 
z"/>
<path fill="#215CCF" opacity="1.000000" stroke="none" 
	d="
M90.105133,129.332855 
	C90.727692,129.031815 91.529716,129.037643 92.717255,129.253815 
	C93.102768,129.464188 93.084846,129.806549 93.084846,129.806549 
	C92.151428,129.750931 91.218018,129.695328 90.105133,129.332855 
z"/>
<path fill="#215CCF" opacity="1.000000" stroke="none" 
	d="
M88.066040,128.284668 
	C88.275711,128.122070 88.529587,128.262711 88.900887,128.624237 
	C88.749100,128.698914 88.446411,128.613190 88.066040,128.284668 
z"/>
<path fill="#1172E7" opacity="1.000000" stroke="none" 
	d="
M93.292160,129.871765 
	C93.084846,129.806549 93.102768,129.464188 93.116272,129.295441 
	C93.332993,129.291046 93.517265,129.474411 93.807289,129.828506 
	C93.931976,129.980209 93.499474,129.936966 93.292160,129.871765 
z"/>
<path fill="#1951D9" opacity="1.000000" stroke="none" 
	d="
M127.698639,86.785431 
	C127.689651,87.014496 127.443779,87.079674 127.233444,86.836960 
	C126.986069,86.413803 126.949020,86.233353 126.938980,86.035233 
	C126.965996,86.017570 127.016647,85.977554 127.016647,85.977554 
	C127.323898,86.078712 127.554222,86.271652 127.698639,86.785431 
z"/>
<path fill="#1951D9" opacity="1.000000" stroke="none" 
	d="
M126.051407,84.954178 
	C126.364708,85.100754 126.639091,85.288925 126.965057,85.727325 
	C127.016647,85.977554 126.965996,86.017570 126.761902,85.889267 
	C126.332321,85.553581 126.126709,85.328079 125.940964,85.084457 
	C125.940964,85.084457 126.012489,84.995781 126.051407,84.954178 
z"/>
<path fill="#1C47D2" opacity="1.000000" stroke="none" 
	d="
M76.386826,114.032104 
	C75.483597,112.514969 74.973610,111.039215 74.463615,109.563454 
	C75.944603,109.193542 77.496284,108.996086 78.894005,108.423058 
	C84.183632,106.254440 89.999123,104.773308 94.550568,101.534912 
	C101.897888,96.307236 106.714088,88.895470 108.074234,79.621597 
	C108.609253,75.973755 110.069153,73.443192 114.679245,75.920113 
	C113.115326,93.115379 103.085480,104.126274 88.448296,111.835709 
	C84.694839,113.812668 81.156677,115.834305 76.386826,114.032104 
z"/>
<path fill="#145CDF" opacity="1.000000" stroke="none" 
	d="
M125.631729,84.972687 
	C126.126709,85.328079 126.332321,85.553581 126.734886,85.906937 
	C126.949020,86.233353 126.986069,86.413803 127.108116,86.858627 
	C126.006607,88.865616 124.820099,90.608238 123.633583,92.350861 
	C123.180527,92.082573 122.727463,91.814285 122.274406,91.546005 
	C120.980972,101.046143 115.049728,107.576569 108.233231,113.508034 
	C106.481087,115.032684 104.366470,116.164719 102.723488,117.786278 
	C98.259918,122.191635 92.992767,123.835693 86.395760,122.970840 
	C86.441063,121.772057 86.948151,120.585289 87.708069,119.186081 
	C97.577202,114.661797 106.307320,109.198509 112.367012,100.247154 
	C113.666290,98.327881 115.224236,96.551102 116.284729,94.511940 
	C117.350571,92.462509 118.027519,90.193565 118.721237,87.972832 
	C119.382858,85.854858 119.846344,83.675003 120.592789,80.756630 
	C122.893661,82.753258 124.108078,83.807091 125.631729,84.972687 
z"/>
<path fill="#272AC1" opacity="1.000000" stroke="none" 
	d="
M93.093521,72.586647 
	C94.864243,72.219330 96.495674,72.169426 98.535652,72.176422 
	C95.848030,82.965149 92.348495,93.326256 79.559074,96.323051 
	C77.232529,96.868210 75.061592,98.077538 72.426407,98.982727 
	C72.069962,97.333244 72.105919,95.681305 72.198624,93.624931 
	C82.107414,89.456360 89.812912,83.505249 93.093521,72.586647 
z"/>
</svg>